<?xml version="1.0" encoding="utf-8"?>
<!-- Generator: Adobe Illustrator 16.0.4, SVG Export Plug-In . SVG Version: 6.00 Build 0)  -->
<!DOCTYPE svg PUBLIC "-//W3C//DTD SVG 1.1//EN" "http://www.w3.org/Graphics/SVG/1.1/DTD/svg11.dtd">
<svg version="1.1" id="Layer_1" xmlns="http://www.w3.org/2000/svg" xmlns:xlink="http://www.w3.org/1999/xlink" x="0px" y="0px"
	 width="100px" height="100px" viewBox="0 0 100 100" enable-background="new 0 0 100 100" xml:space="preserve">
<circle fill-rule="evenodd" clip-rule="evenodd" fill="#E74C3C" cx="50.101" cy="50.102" r="50.101"/>
<path fill="#C0392B" d="M34.453,71.155l29.744,27.022c17.881-5.234,31.611-20.163,35.119-38.717
	C85.827,47.66,64.263,29.09,64.263,29.09L34.453,71.155z"/>
<path fill-rule="evenodd" clip-rule="evenodd" fill="#FDFDFD" d="M66,69.8c0,1.768-1.433,3.2-3.2,3.2H37.2
	c-1.768,0-3.2-1.433-3.2-3.2V32.2c0-1.768,1.433-3.2,3.2-3.2h25.6c1.768,0,3.2,1.433,3.2,3.2V69.8z"/>
<g>
	<path fill="#C0392B" d="M47.495,53.259l-0.729-10.907c-0.137-2.125-0.205-3.65-0.205-4.577c0-1.259,0.331-2.243,0.99-2.948
		c0.661-0.706,1.529-1.059,2.607-1.059c1.306,0,2.178,0.452,2.619,1.355c0.439,0.903,0.66,2.205,0.66,3.904
		c0,1.002-0.053,2.02-0.159,3.051l-0.979,11.226c-0.105,1.336-0.334,2.36-0.683,3.073c-0.35,0.715-0.926,1.071-1.73,1.071
		c-0.82,0-1.389-0.346-1.708-1.037C47.859,55.721,47.632,54.67,47.495,53.259z M50.022,68.24c-0.926,0-1.734-0.3-2.425-0.899
		c-0.69-0.6-1.036-1.438-1.036-2.517c0-0.939,0.331-1.741,0.99-2.401c0.661-0.66,1.469-0.99,2.425-0.99s1.773,0.33,2.447,0.99
		c0.676,0.66,1.014,1.462,1.014,2.401c0,1.063-0.341,1.897-1.024,2.505S50.933,68.24,50.022,68.24z"/>
</g>
</svg>
