<?xml version="1.0" encoding="utf-8"?>
<!-- Generator: Adobe Illustrator 16.0.4, SVG Export Plug-In . SVG Version: 6.00 Build 0)  -->
<!DOCTYPE svg PUBLIC "-//W3C//DTD SVG 1.1//EN" "http://www.w3.org/Graphics/SVG/1.1/DTD/svg11.dtd">
<svg version="1.1" id="Layer_1" xmlns="http://www.w3.org/2000/svg" xmlns:xlink="http://www.w3.org/1999/xlink" x="0px" y="0px"
	 width="100px" height="100px" viewBox="0 0 100 100" enable-background="new 0 0 100 100" xml:space="preserve">
<path fill="#000033" d="M69.776,44.623c-2.253-4.504-5.584-8.945-8.804-13.239c-3.057-4.076-6.219-8.291-8.223-12.3L50,13.585
	l-2.75,5.499c-2.004,4.009-5.166,8.224-8.223,12.3c-3.221,4.294-6.552,8.735-8.804,13.239c-4.581,9.162-4.581,13.443-4.581,18.401
	c0,13.431,10.927,24.356,24.357,24.356c13.43,0,24.356-10.926,24.356-24.356C74.356,58.066,74.356,53.785,69.776,44.623z"/>
<path fill="#FFFFFF" d="M58.514,75.794c-2.915,0-5.692-0.588-8.222-1.648c0.167-1.264-0.015-2.734-0.596-4.189
	c-1.31-3.273-4.141-5.221-6.324-4.347c-0.794,0.317-1.39,0.967-1.768,1.82c-2.741-3.583-4.374-8.059-4.374-12.919
	c0-2.567,0.001-4.828,0.656-7.683c-0.238,0.429-0.468,0.858-0.682,1.285c-3.757,7.515-3.757,10.457-3.757,14.912
	c0,9.127,7.426,16.553,16.553,16.553c4.051,0,7.765-1.465,10.646-3.89C59.943,75.757,59.232,75.794,58.514,75.794z"/>
</svg>
