<?xml version="1.0" encoding="utf-8"?>
<!-- Generator: Adobe Illustrator 16.0.4, SVG Export Plug-In . SVG Version: 6.00 Build 0)  -->
<!DOCTYPE svg PUBLIC "-//W3C//DTD SVG 1.1//EN" "http://www.w3.org/Graphics/SVG/1.1/DTD/svg11.dtd">
<svg version="1.1" id="Layer_1" xmlns="http://www.w3.org/2000/svg" xmlns:xlink="http://www.w3.org/1999/xlink" x="0px" y="0px"
	 width="100px" height="100px" viewBox="0 0 100 100" enable-background="new 0 0 100 100" xml:space="preserve">
<circle fill-rule="evenodd" clip-rule="evenodd" fill="#EAB200" cx="50.101" cy="50.102" r="50.101"/>
<path fill-rule="evenodd" clip-rule="evenodd" fill="#96650D" d="M78.037,36.476c7.135,6.93,14.27,13.86,21.404,20.793
	C97.043,75.123,87.148,87.492,71.37,95.514c-3.668,1.859-7.562,3.103-11.634,3.771c-12.416-12.169-24.834-24.34-37.475-36.732
	c-0.591,0.146-0.163,1.12-0.205,1.791c-0.091,1.493-1.008,1.644-2.178,1.575c-1.218-0.075-1.458-0.859-1.522-1.883
	c-0.149-2.491,0.357-5.021-0.444-7.475c1.189-0.534,2.359-0.266,3.422,0.272c3.12,1.584,4.125,0.276,4.866-2.792
	c1.299-5.393,3.121-10.664,4.724-15.985c0.768,0.575,1.536,1.15,2.301,1.723c-1.438,5.442-2.81,10.901-4.352,16.311
	c-0.505,1.776,0.22,3.617,1.542,3.053c2.047-0.875,3.577-3.004,5.281-4.649c1.575-1.529-2.296-1.257-0.82-2.908
	c4.812,0.786,9.065-0.075,11.719-4.914c0.632-1.153-0.247-3.551,2.329-3.262c2.284,0.258,4.708,0.257,5.154,3.49
	c0.176,1.275,1.277,2.302,2.417,3.023c0.752,0.474,1.572,1.106,2.512,0.317c0.726-0.607,0.668-1.433,0.396-2.176
	c-0.885-2.384-0.995-4.894-1.312-7.373c0.566,0.291,1.133,0.581,1.701,0.867c0.359,1.661,0.791,3.313,1.065,4.992
	c0.333,2.009,1.518,4.5-0.965,5.694c-2.466,1.188-4.565-0.357-6.218-2.258c-0.516-0.593-0.93-1.286-1.322-1.973
	c-1.416-2.481-2.715-3.773-4.296-0.042c-0.956,2.257-2.718,4.28-5.019,4.833c-4.468,1.075-7.076,4.432-10.206,7.199
	c-1.221,1.082-2.618,2.287-1.163,3.965c1.406,1.624,2.854,1.09,4.452-0.221c3.026-2.476,5.78-5.202,8.43-8.093
	c-0.871,4.339-4.18,6.681-7.351,9.14c-1.034,0.8-3.227,0.966-2.242,3.026c0.969,2.024,2.828,1.546,4.517,0.979
	c1.941-0.65,3.282-2.171,4.821-3.418c1.208-0.979,2.174-2.437,4.549-2.936c-2.301,4.043-5.819,5.705-8.726,8.028
	c1.125,1.465,2.514,1.565,4.027,1.385c0.765-0.096,1.672-0.324,2.291-0.03c3.201,1.532,2.75,1.229,4.579-1.388
	c1.805-2.577,1.934-6.611,6.752-7.247c1.807-0.237,5.457-1.233,6.676-4.551c0.616-1.677,2.754-1.77,4.489-0.591
	c0.586,0.398,1.257,1.186,2.081,0.396c0.706-0.68,0.291-1.438,0.092-2.21c-1.421-5.481-2.814-10.97-4.214-16.458
	c1.074,0.839,2.151,1.679,3.222,2.515c1.004,3.399,2.072,6.784,2.999,10.206c1.53,5.652,1.445,5.451,7.107,4.21
	c2.717-0.59,2.651-1.653,2.049-3.804C80.74,47.462,79.431,41.956,78.037,36.476z M55.622,69.969
	c1.455,0.295,2.446,3.152,4.198,1.183c1.545-1.733-0.346-3.065-1.387-4.316c-0.621-0.748-1.552-1.188-2.469-0.667
	c-1.882,1.072,0.477,2.603-0.307,3.836c-0.218,0.334-0.448,0.58-0.897,0.35c-0.763-0.385-1.776-1.27-2.116,0.215
	c-0.246,1.072-0.007,2.316,0.284,3.408c0.085,0.317,1.196,0.65,1.692,0.502c1.358-0.408,1.092-1.555,0.849-2.602
	C55.317,71.226,54.413,70.513,55.622,69.969z M65.985,66.71c-0.414-1.809-1.75-2.745-3.564-3.053
	c-1.225-0.212-2.188,0.253-1.998,1.69c0.244,1.803,1.092,3.393,3.028,3.675C64.78,69.214,65.519,68.092,65.985,66.71z
	 M69.848,62.562c-0.254-1.569-1.206-2.618-2.795-2.793c-1.029-0.117-1.786,0.703-1.807,1.703c-0.032,1.66,1.043,2.742,2.546,3.053
	C69.023,64.778,69.613,63.767,69.848,62.562z"/>
<path fill-rule="evenodd" clip-rule="evenodd" fill="#FDFDFD" d="M66.892,39.78c1.399,5.487,2.793,10.977,4.214,16.458
	c0.199,0.771,0.614,1.53-0.092,2.21c-0.824,0.79-1.495,0.003-2.081-0.396c-1.735-1.179-3.873-1.086-4.489,0.591
	c-1.219,3.317-4.869,4.313-6.676,4.551c-4.818,0.636-4.947,4.67-6.752,7.247c-1.828,2.616-1.378,2.92-4.579,1.388
	c-0.619-0.294-1.526-0.065-2.291,0.03c-1.513,0.181-2.903,0.08-4.027-1.385c2.906-2.323,6.425-3.985,8.726-8.028
	c-2.375,0.499-3.342,1.957-4.549,2.936c-1.539,1.247-2.88,2.768-4.821,3.418c-1.688,0.567-3.548,1.046-4.517-0.979
	c-0.985-2.061,1.208-2.227,2.242-3.026c3.171-2.459,6.48-4.801,7.351-9.14c-2.65,2.891-5.404,5.617-8.43,8.093
	c-1.598,1.311-3.046,1.845-4.452,0.221c-1.455-1.678-0.058-2.883,1.163-3.965c3.13-2.768,5.738-6.124,10.206-7.199
	c2.301-0.553,4.063-2.575,5.019-4.833c1.581-3.731,2.88-2.44,4.296,0.042c0.393,0.687,0.807,1.38,1.322,1.973
	c1.652,1.901,3.752,3.446,6.218,2.258c2.482-1.193,1.298-3.685,0.965-5.694c-0.274-1.679-0.706-3.331-1.065-4.992
	c0.094-1.055-0.113-2.054-0.798-3.251C61.87,38.35,64.45,38.656,66.892,39.78z"/>
<path fill-rule="evenodd" clip-rule="evenodd" fill="#FDFDFD" d="M58.091,40.692c0.317,2.479,0.428,4.988,1.312,7.373
	c0.272,0.743,0.33,1.568-0.396,2.176c-0.939,0.789-1.76,0.157-2.512-0.317c-1.14-0.721-2.241-1.748-2.417-3.023
	c-0.446-3.233-2.87-3.232-5.154-3.49c-2.576-0.289-1.697,2.109-2.329,3.262c-2.654,4.839-6.908,5.7-11.719,4.914
	c-1.477,1.651,2.395,1.379,0.82,2.908c-1.704,1.646-3.234,3.774-5.281,4.649c-1.322,0.564-2.047-1.276-1.542-3.053
	c1.542-5.41,2.913-10.869,4.352-16.311c4.649-2.276,9.719-3.338,14.738-3.719C51.767,35.771,54.99,38.502,58.091,40.692z"/>
<path fill-rule="evenodd" clip-rule="evenodd" fill="#FDFDFD" d="M78.037,36.476c1.394,5.48,2.703,10.987,4.231,16.432
	c0.603,2.15,0.668,3.214-2.049,3.804c-5.662,1.241-5.577,1.442-7.107-4.21c-0.927-3.422-1.995-6.807-2.999-10.206
	c0.4-1.601-1.878-3.808-0.163-4.562C72.368,36.674,75.102,35.228,78.037,36.476z"/>
<path fill-rule="evenodd" clip-rule="evenodd" fill="#FDFDFD" d="M30.924,38.057c-1.604,5.322-3.425,10.592-4.724,15.985
	c-0.742,3.068-1.746,4.376-4.866,2.792c-1.062-0.538-2.232-0.807-3.422-0.272c-1.477-2.411,0.733-4.633,0.357-6.989
	c1.993-3.494,2.862-7.285,2.991-11.271c0.871-1.649,1.61-3.114,4.085-1.981C27.078,37.112,29.223,36.922,30.924,38.057z"/>
<path fill-rule="evenodd" clip-rule="evenodd" fill="#FDFDFD" d="M65.985,66.71c-0.467,1.382-1.205,2.504-2.534,2.312
	c-1.937-0.282-2.784-1.872-3.028-3.675c-0.19-1.438,0.773-1.902,1.998-1.69C64.235,63.965,65.571,64.901,65.985,66.71z"/>
<path fill-rule="evenodd" clip-rule="evenodd" fill="#FDFDFD" d="M55.658,70.004c0.783-1.233-1.575-2.764,0.307-3.836
	c0.917-0.521,1.848-0.081,2.469,0.667c1.041,1.251,2.932,2.583,1.387,4.316c-1.752,1.97-2.743-0.888-4.198-1.183L55.658,70.004z"/>
<path fill-rule="evenodd" clip-rule="evenodd" fill="#FDFDFD" d="M69.848,62.562c-0.234,1.204-0.824,2.216-2.056,1.963
	c-1.503-0.311-2.578-1.393-2.546-3.053c0.021-1,0.777-1.82,1.807-1.703C68.642,59.944,69.594,60.993,69.848,62.562z"/>
<path fill-rule="evenodd" clip-rule="evenodd" fill="#FDFDFD" d="M55.622,69.969c-1.209,0.544-0.305,1.257-0.152,1.908
	c0.243,1.047,0.51,2.193-0.849,2.602c-0.496,0.148-1.607-0.185-1.692-0.502c-0.291-1.092-0.53-2.336-0.284-3.408
	c0.34-1.484,1.354-0.6,2.116-0.215c0.449,0.23,0.68-0.016,0.897-0.35L55.622,69.969z"/>
</svg>
