<?xml version="1.0" encoding="utf-8"?>
<!-- Generator: Adobe Illustrator 16.0.4, SVG Export Plug-In . SVG Version: 6.00 Build 0)  -->
<!DOCTYPE svg PUBLIC "-//W3C//DTD SVG 1.1//EN" "http://www.w3.org/Graphics/SVG/1.1/DTD/svg11.dtd">
<svg version="1.1" id="Layer_1" xmlns="http://www.w3.org/2000/svg" xmlns:xlink="http://www.w3.org/1999/xlink" x="0px" y="0px"
	 width="100px" height="100px" viewBox="0 0 100 100" enable-background="new 0 0 100 100" xml:space="preserve">
<path fill="#397035" d="M88.503,52.76c-0.385-0.664-1.205-0.938-1.91-0.634c-9.552,4.093-14.852,8.935-17.744,12.664
	c0.831-10.439,3.816-31.418,14.51-45.676c0.397-0.53,0.404-1.258,0.018-1.796c-0.389-0.538-1.081-0.761-1.71-0.551
	c-6.814,2.271-12.455,13.039-16.765,32.002c-0.745,3.278-1.387,6.532-1.932,9.591c-0.192-2.1-0.442-4.32-0.764-6.626
	C60.45,39.155,56.117,21.64,45.441,9.63c-0.529-0.596-1.429-0.68-2.059-0.193c-0.63,0.486-0.777,1.378-0.335,2.041
	c6.117,9.176,9.415,30.212,11.029,44.714c-0.932-2.498-2.04-5.207-3.346-8.038C45.46,36.736,35.825,21.17,19.847,11.85
	c-0.694-0.404-1.583-0.198-2.027,0.471c-0.444,0.669-0.289,1.569,0.354,2.051c15.32,11.489,23.938,28.391,28.47,40.546
	c1.878,5.037,3.23,9.701,4.185,13.552c-1.44-2.365-3.21-4.994-5.328-7.69c-9.313-11.854-20.979-19.243-33.735-21.369
	c-0.755-0.123-1.489,0.333-1.705,1.069c-0.216,0.736,0.152,1.518,0.858,1.82C28.75,49.942,39.213,62.26,44.85,71.246
	c6.131,9.774,8.053,17.85,8.071,17.929c0.158,0.688,0.771,1.175,1.478,1.175h10.09c0.837,0,1.516-0.679,1.516-1.517
	c0-0.175,0.949-18.241,22.097-34.102C88.714,54.271,88.887,53.425,88.503,52.76z"/>
</svg>
