<?xml version="1.0" encoding="utf-8"?>
<!-- Generator: Adobe Illustrator 16.0.4, SVG Export Plug-In . SVG Version: 6.00 Build 0)  -->
<!DOCTYPE svg PUBLIC "-//W3C//DTD SVG 1.1//EN" "http://www.w3.org/Graphics/SVG/1.1/DTD/svg11.dtd">
<svg version="1.1" id="Layer_1" xmlns="http://www.w3.org/2000/svg" xmlns:xlink="http://www.w3.org/1999/xlink" x="0px" y="0px"
	 width="100px" height="100px" viewBox="0 0 100 100" enable-background="new 0 0 100 100" xml:space="preserve">
<circle fill-rule="evenodd" clip-rule="evenodd" fill="#FFB600" cx="50" cy="50" r="50"/>
<g>
	<path fill="#96650D" d="M99.417,57.651c-0.046-0.043-0.089-0.092-0.135-0.135c-0.479-0.444-0.899-0.983-1.444-1.354
		c-0.626-0.915-1.604-1.636-2.354-2.444c-0.379-0.408-0.794-0.822-1.201-1.201c-0.479-0.444-0.899-0.983-1.444-1.354
		c-0.618-0.903-1.585-1.624-2.336-2.412c-0.825-0.866-1.709-1.66-2.519-2.533c-1.603-1.727-3.398-3.273-5-5
		c-0.74-0.797-1.566-1.708-2.417-2.386c-0.941-0.753-1.575-1.889-2.691-2.44C77.226,36.069,76.54,36,75.833,36
		c-10.224,0-20.446,0-30.67,0c-5.325,0-10.649,0-15.974,0c-1.096,0-2.191,0-3.286,0C23.307,36,22,38.091,22,40.441
		c0,5.606,0,11.212,0,16.818c0,1.646,0,3.291,0,4.938c0,2.497,2.463,3.656,3.832,5.37c1.464,1.832,3.539,3.173,5,5
		c0.68,0.85,1.589,1.675,2.387,2.416c0.86,0.8,1.64,1.701,2.5,2.5c1.726,1.604,3.274,3.396,5,5c3.451,3.207,6.547,6.796,10,10
		c1.727,1.603,3.273,3.397,5,5c0.666,0.617,1.279,1.342,1.971,1.927C79.158,96.097,96.119,79.126,99.417,57.651z"/>
</g>
<path fill="#FFFFFF" d="M75.2,35H24.8c-2.095,0-3.8,1.705-3.8,3.8v22.399C21,63.295,22.705,65,24.8,65h50.4
	c2.096,0,3.8-1.705,3.8-3.801V38.8C79,36.705,77.296,35,75.2,35z M24.071,43.282c2.829-0.299,5.105-2.379,5.568-5.038H70.66
	c0.446,2.564,2.579,4.591,5.269,4.999v13.374c-2.717,0.413-4.866,2.482-5.281,5.139H29.661c-0.406-2.725-2.711-4.873-5.59-5.177
	V43.282z"/>
<g>
	<path fill="#FFFFFF" d="M48.607,58.221c-0.929-0.127-1.801-0.382-2.615-0.763s-1.507-0.854-2.079-1.417l0.905-1.348
		c0.08-0.119,0.185-0.217,0.316-0.292c0.131-0.076,0.268-0.113,0.411-0.113c0.175,0,0.361,0.062,0.56,0.185
		c0.198,0.123,0.425,0.268,0.679,0.435c0.254,0.167,0.543,0.333,0.869,0.5s0.711,0.29,1.156,0.369l0.453-5.336
		c-0.564-0.16-1.122-0.347-1.674-0.562c-0.552-0.215-1.048-0.5-1.489-0.855c-0.441-0.354-0.796-0.803-1.066-1.345
		c-0.27-0.542-0.405-1.219-0.405-2.032c0-0.606,0.121-1.197,0.363-1.775c0.242-0.578,0.594-1.094,1.054-1.548
		s1.028-0.829,1.704-1.124c0.675-0.295,1.449-0.442,2.323-0.442l0.108-1.25C50.12,39.506,50.061,39.5,50,39.5
		c-7.446,0-13.5,4.709-13.5,10.5c0,5.373,5.219,9.812,11.922,10.422L48.607,58.221z"/>
	<path fill="#FFFFFF" d="M51.987,39.627l-0.104,1.209c0.842,0.135,1.568,0.374,2.18,0.715s1.145,0.727,1.598,1.155l-0.715,1.084
		c-0.111,0.159-0.223,0.278-0.334,0.357c-0.111,0.08-0.246,0.119-0.406,0.119c-0.119,0-0.26-0.038-0.422-0.113
		c-0.162-0.075-0.35-0.167-0.561-0.274c-0.209-0.107-0.441-0.216-0.695-0.328c-0.256-0.111-0.537-0.202-0.846-0.274l-0.418,4.935
		c0.572,0.175,1.137,0.367,1.697,0.578s1.064,0.483,1.514,0.816c0.447,0.333,0.811,0.749,1.09,1.245
		c0.277,0.496,0.416,1.118,0.416,1.864c0,0.739-0.123,1.432-0.369,2.079s-0.605,1.22-1.078,1.716s-1.055,0.899-1.744,1.209
		c-0.691,0.31-1.482,0.496-2.371,0.56l-0.143,1.752c-0.014,0.168-0.089,0.322-0.211,0.466C57.475,60.471,63.5,55.771,63.5,50
		C63.5,44.736,58.487,40.378,51.987,39.627z"/>
	<path fill="#FFFFFF" d="M53.193,53.17c0-0.302-0.053-0.565-0.16-0.792s-0.258-0.427-0.453-0.602s-0.424-0.325-0.686-0.453
		c-0.262-0.127-0.547-0.241-0.857-0.345l-0.405,4.836c0.842-0.111,1.479-0.396,1.913-0.852
		C52.977,54.506,53.193,53.908,53.193,53.17z"/>
	<path fill="#FFFFFF" d="M47.976,43.994c-0.199,0.191-0.344,0.403-0.435,0.638c-0.092,0.234-0.137,0.483-0.137,0.745
		c0,0.302,0.052,0.568,0.155,0.798s0.248,0.435,0.435,0.614c0.187,0.179,0.407,0.338,0.661,0.477
		c0.254,0.139,0.532,0.264,0.833,0.375l0.37-4.41c-0.437,0.056-0.81,0.149-1.12,0.28C48.429,43.642,48.174,43.803,47.976,43.994z"/>
</g>
</svg>
