<?xml version="1.0" encoding="utf-8"?>
<!-- Generator: Adobe Illustrator 16.0.4, SVG Export Plug-In . SVG Version: 6.00 Build 0)  -->
<!DOCTYPE svg PUBLIC "-//W3C//DTD SVG 1.1//EN" "http://www.w3.org/Graphics/SVG/1.1/DTD/svg11.dtd">
<svg version="1.1" id="Layer_1" xmlns="http://www.w3.org/2000/svg" xmlns:xlink="http://www.w3.org/1999/xlink" x="0px" y="0px"
	 width="100px" height="100px" viewBox="0 0 100 100" enable-background="new 0 0 100 100" xml:space="preserve">
<circle fill-rule="evenodd" clip-rule="evenodd" fill="#1E8246" cx="48" cy="48" r="48"/>
<circle fill-rule="evenodd" clip-rule="evenodd" fill="#2ECC71" cx="52" cy="52" r="48"/>
<path fill="#1E8246" d="M99.837,56.062C88.245,45.191,75.74,34,75.74,34L24.381,54.292l42.486,43.026
	C84.491,91.06,97.564,75.22,99.837,56.062z"/>
<path fill-rule="evenodd" clip-rule="evenodd" fill="#FDFDFD" d="M72.536,32.898c-0.578,0.167-0.591,0.954-1.209,1.171
	c-0.272,0.095-0.569,0.045-0.852,0.028c-1.027-0.062-2.055-0.132-3.083-0.2c-2.522-0.168-5.041-0.318-7.551-0.646
	c-1.072-0.14-2.142-0.293-3.214-0.438c-0.924-0.125-1.978-0.111-2.838-0.504c-0.581-0.266-1.062-0.732-1.267-1.347
	c-0.268-0.799,0.037-1.622,0.025-2.438c-0.043-3.164-3.447-3.686-5.943-3.957c-4.325-0.472-8.725,0.091-13.013-0.777
	c-1.379-0.351-1.973,0.379-2.207,1.64c-0.346,1.864-0.949,3.694-1.438,5.525c-1.163,4.355-2.298,8.718-3.481,13.068
	c-0.591,2.174-1.194,4.346-1.817,6.512c-0.31,1.074-0.978,2.695-0.269,3.758c0.676,1.015,2.301,0.924,3.354,0.953
	c2.24,0.062,4.48,0.167,6.717,0.308c2.035,0.127,4.137,0.163,6.151,0.494c1.179,0.194,2.412,0.707,2.729,1.978
	c0.356,1.424-0.405,2.836,0.437,4.195c0.667,1.075,1.946,1.526,3.134,1.728c3.819,0.646,7.715,0.561,11.567,0.779
	c1.218,0.069,3.316,0.053,3.575,1.622c0.136,0.826-0.076,1.715-0.247,2.519c-0.31,1.44-0.727,2.855-1.058,4.283
	c-0.342,1.483,0.442,2.644,1.883,3.048c1.545,0.435,2.602-0.599,3.059-1.99c0.687-2.091,1.148-4.283,1.714-6.41
	c0.583-2.196,1.167-4.395,1.75-6.592c1.539-5.802,3.073-11.602,4.595-17.409c0.368-1.408,0.736-2.816,1.104-4.223
	c0.361-1.386,0.904-2.834,1.068-4.258C76.15,33.251,74.33,32.372,72.536,32.898C72.48,32.914,74.809,32.232,72.536,32.898z"/>
</svg>
