<?xml version="1.0" encoding="utf-8"?>
<!-- Generator: Adobe Illustrator 16.0.4, SVG Export Plug-In . SVG Version: 6.00 Build 0)  -->
<!DOCTYPE svg PUBLIC "-//W3C//DTD SVG 1.1//EN" "http://www.w3.org/Graphics/SVG/1.1/DTD/svg11.dtd">
<svg version="1.1" id="Layer_1" xmlns="http://www.w3.org/2000/svg" xmlns:xlink="http://www.w3.org/1999/xlink" x="0px" y="0px"
	 width="30px" height="30px" viewBox="0 0 30 30" enable-background="new 0 0 30 30" xml:space="preserve">
<path fill="#FFE53E" stroke="#C9A50E" stroke-width="2" stroke-miterlimit="10" d="M28.805,11.515
	c-0.059-0.181-0.216-0.313-0.403-0.34l-8.95-1.301l-4.003-8.11c-0.168-0.342-0.729-0.342-0.896,0l-4.003,8.11l-8.95,1.301
	c-0.188,0.027-0.345,0.159-0.404,0.34c-0.059,0.181-0.01,0.379,0.126,0.512l6.477,6.313L6.27,27.254
	c-0.032,0.188,0.045,0.378,0.199,0.489c0.154,0.112,0.359,0.128,0.527,0.038L15,23.572l8.006,4.209
	c0.073,0.039,0.152,0.058,0.232,0.058c0.104,0,0.207-0.032,0.294-0.096c0.154-0.111,0.231-0.301,0.199-0.489l-1.529-8.914
	l6.476-6.313C28.814,11.894,28.863,11.695,28.805,11.515z"/>
</svg>
