<?xml version="1.0" encoding="utf-8"?>
<!-- Generator: Adobe Illustrator 16.0.4, SVG Export Plug-In . SVG Version: 6.00 Build 0)  -->
<!DOCTYPE svg PUBLIC "-//W3C//DTD SVG 1.1//EN" "http://www.w3.org/Graphics/SVG/1.1/DTD/svg11.dtd">
<svg version="1.1" id="Layer_1" xmlns="http://www.w3.org/2000/svg" xmlns:xlink="http://www.w3.org/1999/xlink" x="0px" y="0px"
	 width="100px" height="100px" viewBox="0 0 100 100" enable-background="new 0 0 100 100" xml:space="preserve">
<g>
	<polygon fill="#878787" points="72.655,39.613 73.414,27.761 73.111,27.542 73.462,22.084 63.654,14.998 53.588,20.281 
		47.069,16.158 37.864,21.748 37.771,33.1 36.341,34.609 37.07,37.635 39.601,34.416 48.316,36.885 48.34,33.962 57.546,28.371 
		60.23,23.48 65.519,23.53 68.121,28.471 65.437,33.362 66.658,34.134 66.599,41.332 71.839,47.058 70.574,51.963 73.177,56.903 
		70.492,61.794 65.205,61.745 62.815,61.722 61.479,63.421 62.936,67.371 56.469,77.969 67.709,78.799 80.912,57.738 	"/>
	<polygon fill="#B2B2B2" points="63.267,61.147 62.815,61.722 65.205,61.745 70.492,61.794 73.177,56.903 70.574,51.963 
		71.839,47.058 66.599,41.332 66.658,34.134 65.437,33.362 68.121,28.471 65.519,23.53 60.23,23.48 57.546,28.371 48.34,33.962 
		48.316,36.885 57.871,39.592 	"/>
	<path fill="#9D9D9C" d="M61.479,63.421l1.336-1.699l0.451-0.574l-5.396-21.556l-9.555-2.707l-8.716-2.469l-2.53,3.219l-7.703,9.798
		l-8.416,3.026l-0.067,0.339l-3.874,1.392l-2.16,10.95l6.472,7.312l-1.028,7.094l6.445,6.451l7.882-3.464l1.444,0.802l2.558-2.159
		l0.327,0.892l15.049,1.95l2.468-4.049l6.467-10.598L61.479,63.421z M32.26,70.851l-6.444-6.45l-4.137-0.862l-1.445-4.724
		l2.691-3.862l4.136,0.862l0.193-1.33l4.998-2.197l2.496-6.455l3.75-0.404l2.69-3.863l4.137,0.863l0.06,0.198l0.774-0.83l3.988,1.57
		l0.115,0.659l2.055-0.514l2.8,3.75l-1.312,4.781l-4.109,1.028l-1.399-1.873l-0.218,0.233l0.136,0.445l-1.969,2.827l1.25,2.132
		l-2.496,6.456l-3.749,0.403l-0.651,0.549l-0.456,3.144L32.26,70.851z"/>
	<polygon fill="#B2B2B2" points="40.143,67.387 40.599,64.243 41.25,63.694 44.999,63.291 47.495,56.835 46.245,54.703 
		48.214,51.876 48.078,51.431 47.877,51.646 43.889,50.074 43.029,45.15 45.384,42.625 45.324,42.428 41.188,41.565 38.497,45.428 
		34.748,45.833 32.252,52.287 27.254,54.484 27.062,55.814 22.925,54.952 20.234,58.814 21.679,63.538 25.816,64.4 32.26,70.851 	
		"/>
	<polygon fill="#C6C6C6" points="43.889,50.074 47.877,51.646 48.078,51.431 48.296,51.197 49.695,53.07 53.805,52.042 
		55.116,47.261 52.316,43.51 50.262,44.024 50.146,43.365 46.158,41.795 45.384,42.625 43.029,45.15 	"/>
	<polygon fill="#9D9D9C" points="83.463,74.059 79.113,72.93 77.779,74.683 77.313,74.238 73.264,75.614 72.698,80.323 
		76.183,83.654 80.234,82.279 80.31,81.649 82.484,82.213 85.149,78.702 	"/>
	<polygon fill="#9D9D9C" points="54.542,81.901 52.721,85.289 54.542,88.678 58.188,88.678 60.009,85.289 58.188,81.901 	"/>
</g>
</svg>
