<?xml version="1.0" encoding="utf-8"?>
<!-- Generator: Adobe Illustrator 16.0.4, SVG Export Plug-In . SVG Version: 6.00 Build 0)  -->
<!DOCTYPE svg PUBLIC "-//W3C//DTD SVG 1.1//EN" "http://www.w3.org/Graphics/SVG/1.1/DTD/svg11.dtd">
<svg version="1.1" id="Layer_1" xmlns="http://www.w3.org/2000/svg" xmlns:xlink="http://www.w3.org/1999/xlink" x="0px" y="0px"
	 width="100px" height="100px" viewBox="0 0 100 100" enable-background="new 0 0 100 100" xml:space="preserve">
<path fill="#CCCC33" d="M72.664,40.963c-0.343-0.185-0.771-0.062-0.961,0.277c-5.583,9.896-14.78,25.852-16.126,27.315
	c-1.014,0.278-2.257,0.795-3.178,1.718v-3.696c0.348,0.145,0.726,0.222,1.132,0.222c1.649,0,3.502-1.24,4.721-3.159
	c0.958-1.511,0.845-3.418,0.568-4.784c0.253-1.636,6.105-18.578,10.024-29.701c0.129-0.367-0.06-0.77-0.424-0.907
	c-0.366-0.136-0.771,0.045-0.915,0.407c-2.808,7.101-6.91,17.229-9.558,23.32c0.337-1.309,0.143-2.7-0.137-3.75
	c-0.035-1.468,2.45-20.182,4.144-32.503c0.054-0.386-0.213-0.743-0.598-0.803c-0.387-0.059-0.747,0.201-0.813,0.584
	c-1.927,11.104-5.239,29.029-6.153,31.167c-0.631,0.218-1.341,0.536-1.991,0.986v-0.25c0-0.371-0.078-0.723-0.218-1.043
	c0.806-1.005,1.338-2.476,1.396-4.146c0.062-1.769-0.975-3.34-1.896-4.379c-0.432-1.888-1.159-20.832-1.547-33.312
	c-0.013-0.389-0.349-0.707-0.724-0.692c-0.39,0.005-0.703,0.321-0.705,0.711c-0.054,11.973-0.308,31.366-0.764,33.336
	c-0.917,0.939-1.971,2.376-2.029,4.065c-0.052,1.453,0.264,2.843,0.887,3.913c0.153,0.262,0.322,0.495,0.502,0.706
	c-0.09,0.264-0.141,0.547-0.141,0.841v0.019c-0.546-0.328-1.112-0.576-1.627-0.754c-0.915-2.137-4.228-20.062-6.153-31.167
	c-0.067-0.383-0.429-0.642-0.814-0.583c-0.385,0.06-0.651,0.417-0.598,0.803c1.693,12.321,4.179,31.037,4.143,32.503
	c-0.279,1.051-0.474,2.444-0.134,3.755c-2.648-6.091-6.752-16.222-9.561-23.325c-0.143-0.362-0.549-0.542-0.914-0.407
	c-0.365,0.137-0.553,0.54-0.424,0.907c3.919,11.123,9.771,28.065,10.024,29.701c-0.277,1.366-0.39,3.273,0.568,4.784
	c1.217,1.919,3.07,3.159,4.72,3.159c0.269,0,0.524-0.035,0.769-0.099v3.241c-0.869-0.717-1.928-1.143-2.814-1.386
	c-1.346-1.462-10.543-17.419-16.125-27.315c-0.191-0.338-0.618-0.461-0.962-0.277c-0.342,0.185-0.474,0.61-0.295,0.956
	c5.453,10.572,13.621,26.697,14.132,28.48c-0.271,1.363-0.374,3.249,0.576,4.747c1.217,1.919,3.07,3.158,4.72,3.158
	c0.269,0,0.524-0.034,0.769-0.098v16.341c0,1.446,1.173,2.619,2.619,2.619c1.447,0,2.62-1.173,2.62-2.619V78.083
	c0.348,0.145,0.726,0.222,1.132,0.222c0.001,0,0,0,0.001,0c1.648,0,3.501-1.239,4.72-3.158c0.949-1.498,0.848-3.384,0.576-4.747
	c0.511-1.783,8.679-17.908,14.132-28.48C73.139,41.573,73.007,41.148,72.664,40.963z M55.537,57.062
	c-1.006,0.28-2.229,0.795-3.138,1.705v-2.304c0.132,0.019,0.267,0.029,0.404,0.029c0,0,0,0,0.001,0c1.604,0,3.339-1.192,4.506-3.067
	C56.469,55.318,55.837,56.637,55.537,57.062z M47.12,56.492c0.014,0,0.027-0.002,0.041-0.002v1.945
	c-0.856-0.706-1.897-1.13-2.774-1.374c-0.3-0.425-0.934-1.745-1.777-3.643C43.777,55.298,45.513,56.492,47.12,56.492z"/>
</svg>
