<?xml version="1.0" encoding="utf-8"?>
<!-- Generator: Adobe Illustrator 16.0.4, SVG Export Plug-In . SVG Version: 6.00 Build 0)  -->
<!DOCTYPE svg PUBLIC "-//W3C//DTD SVG 1.1//EN" "http://www.w3.org/Graphics/SVG/1.1/DTD/svg11.dtd">
<svg version="1.1" id="Layer_1" xmlns="http://www.w3.org/2000/svg" xmlns:xlink="http://www.w3.org/1999/xlink" x="0px" y="0px"
	 width="100px" height="100px" viewBox="0 0 100 100" enable-background="new 0 0 100 100" xml:space="preserve">
<g>
	<polygon fill="#683C11" points="13.573,69.366 18.366,68.671 11.071,67.848 	"/>
	<polygon fill="#683C11" points="22.506,66.767 21.318,68.242 25.96,67.568 26.274,67.244 23.868,67.594 	"/>
	<polygon fill="#432918" points="28.1,63.431 28.139,63.262 25.792,62.686 22.506,66.767 23.868,67.594 26.274,67.244 
		30.816,66.586 	"/>
	<polygon fill="#432918" points="29.26,58.377 25.792,62.686 28.139,63.262 30.072,54.886 28.295,55.916 	"/>
	<polygon fill="#936037" points="30.389,53.509 30.706,52.138 29.649,52.234 	"/>
	<polygon fill="#7D4E24" points="28.548,50.339 29.649,52.234 30.706,52.138 31.165,50.149 30.691,50.689 	"/>
	<polygon fill="#7D4E24" points="28.548,50.339 28.312,50.299 27.042,50.42 26.253,50.71 28.295,55.916 30.072,54.886 
		30.389,53.509 29.649,52.234 	"/>
	<polygon fill="#683C11" points="5.081,49.096 6.557,50.711 9.027,47.644 	"/>
	<polygon fill="#683C11" points="26.171,50.502 26.253,50.71 27.042,50.42 	"/>
	<path fill="#FFE0AE" d="M25.792,62.686l3.468-4.309l-0.965-2.461l-2.042-5.206l-0.082-0.208l-2.672,0.252l-2.445-1.643
		l-3.532-0.578l-1.097-3.131l-5.129-0.578l-2.269,2.819l-2.47,3.068l-3.765,4.677l4.73,12.059l3.549,0.4l7.295,0.823l2.39,0.27
		l0.562-0.698l1.188-1.476L25.792,62.686z M11.432,56.632c-0.257-2.538,1.646-4.903,4.252-5.281
		c2.606-0.379,4.928,1.374,5.186,3.911c0.258,2.541-1.645,4.906-4.251,5.284S11.69,59.172,11.432,56.632z"/>
	<path fill="#7D4E24" d="M20.869,55.262c-0.257-2.537-2.579-4.29-5.186-3.911c-2.606,0.378-4.509,2.743-4.252,5.281
		c0.258,2.54,2.58,4.292,5.186,3.914S21.127,57.803,20.869,55.262z"/>
	<polygon fill="#683C11" points="28.312,50.299 21.054,49.112 23.499,50.754 26.171,50.502 27.042,50.42 	"/>
	<polygon fill="#432918" points="58.568,43.581 56.874,43.741 57.627,44.46 57.648,44.46 	"/>
	<polygon fill="#432918" points="49.652,42.471 49.998,42.801 50.226,42.801 45.722,39.773 47.356,38.225 45.629,38.389 
		43.227,36.774 40.964,36.869 38.681,38.055 39.559,40.562 37.887,42.471 	"/>
	<polygon fill="#432918" points="56.511,35.155 53.922,37.605 47.356,38.225 45.722,39.773 50.226,42.801 55.892,42.801 
		56.874,43.741 58.568,43.581 58.955,43.21 60.776,38.162 68.17,36.303 67.369,35.765 64.288,35.894 59.887,33.95 59.887,33.95 
		59.886,33.95 57.948,35.094 	"/>
	<polygon fill="#1D1D1B" points="70.635,37.959 68.17,36.303 60.776,38.162 58.955,43.21 60.051,42.163 68.369,42.163 
		68.692,42.471 78.768,42.471 79.193,42.877 81.955,41.526 83.166,38.168 79.177,36.94 78.928,37.176 	"/>
	<polygon fill="#683C11" points="59.887,33.95 64.288,35.894 67.369,35.765 66.269,35.025 70.195,31.307 78.487,30.524 
		81.494,32.544 82.519,31.938 75.917,29.022 66.26,29.426 67.902,31.486 	"/>
	<polygon fill="#683C11" points="56.511,35.155 57.948,35.094 59.886,33.95 57.751,33.822 57.85,33.888 	"/>
	<polygon fill="#683C11" points="47.733,36.586 43.227,36.774 45.629,38.389 47.356,38.225 53.922,37.605 56.511,35.155 
		57.85,33.888 57.751,33.822 52.902,33.532 	"/>
	<polygon fill="#7D4E24" points="70.195,31.307 66.269,35.025 67.369,35.765 68.17,36.303 70.635,37.959 78.928,37.176 
		79.177,36.94 82.854,33.458 81.494,32.544 78.487,30.524 	"/>
	<polygon fill="#936037" points="41.344,36.672 40.964,36.869 43.227,36.774 47.733,36.586 52.902,33.532 49.409,33.323 
		49.219,33.084 47.431,34.141 40.163,34.444 	"/>
	<polygon fill="#432918" points="49.219,33.084 49.409,33.323 52.902,33.532 57.751,33.822 59.886,33.95 59.887,33.95 59.887,33.95 
		67.902,31.486 66.26,29.426 65.439,28.397 54.962,27.771 50.032,29.286 53.245,30.706 	"/>
	<polygon fill="#7D4E24" points="40.86,31.483 38.917,32.093 40.163,34.444 47.431,34.141 49.219,33.084 53.245,30.706 
		50.032,29.286 46.644,27.789 38.056,28.147 	"/>
	<polygon fill="#7D4E24" points="41.344,36.672 40.163,34.444 38.917,32.093 36.823,32.751 38.681,38.055 40.964,36.869 	"/>
	<polygon fill="#683C11" points="15.726,30.076 17.145,31.764 19.72,28.822 	"/>
	<polygon fill="#683C11" points="35.256,28.276 36.823,32.751 38.917,32.093 40.86,31.483 38.056,28.147 37.769,27.806 
		29.584,27.348 	"/>
	<path fill="#FFE0AE" d="M17.521,48.534l3.532,0.578l7.258,1.188l0.237,0.04l2.143,0.351l0.473-0.541l0.283-1.225l-0.512-0.489
		l6.239-5.964h0.712l1.672-1.91l-0.878-2.507l-1.857-5.304l-1.567-4.475l-5.672-0.928l-7.498-1.227l-2.366,2.702l-2.575,2.942
		l-3.926,4.484l3.206,9.155L17.521,48.534z M26.24,32.86c2.618-0.248,4.876,1.62,5.044,4.168c0.169,2.551-1.816,4.818-4.433,5.066
		c-2.617,0.246-4.875-1.62-5.044-4.171C21.639,35.375,23.624,33.107,26.24,32.86z"/>
	<path fill="#7D4E24" d="M21.807,37.924c0.168,2.551,2.427,4.417,5.044,4.171c2.617-0.248,4.602-2.515,4.433-5.066
		c-0.168-2.548-2.426-4.416-5.044-4.168C23.624,33.107,21.639,35.375,21.807,37.924z"/>
	<polygon fill="#683C11" points="47.573,42.801 49.998,42.801 49.652,42.471 37.887,42.471 37.174,42.471 30.936,48.435 
		31.447,48.924 31.58,48.347 44.567,44.306 45.213,45.057 	"/>
	<polygon fill="#683C11" points="57.627,44.46 57.638,44.47 57.648,44.46 	"/>
	<polygon fill="#683C11" points="57.648,44.46 57.638,44.47 60.051,46.778 59.3,47.496 60.744,47.772 66.29,42.471 68.692,42.471 
		68.369,42.163 60.051,42.163 58.955,43.21 58.568,43.581 	"/>
	<polygon fill="#7D4E24" points="53.812,46.447 59.3,47.496 60.051,46.778 57.638,44.47 57.627,44.46 56.874,43.741 55.892,42.801 
		50.226,42.801 49.998,42.801 47.573,42.801 45.213,45.057 48.568,48.954 	"/>
	<polygon fill="#936037" points="60.744,47.772 64.21,48.435 64.371,48.897 66.29,47.062 72.87,47.062 72.528,46.14 79.193,42.877 
		78.768,42.471 68.692,42.471 66.29,42.471 	"/>
	<polygon fill="#432918" points="59.729,54.992 60.051,54.685 61.783,54.685 60.051,53.028 64.371,48.897 64.21,48.435 
		60.744,47.772 59.3,47.496 53.812,46.447 48.568,48.954 53.769,54.992 	"/>
	<polygon fill="#7D4E24" points="75.166,53.253 72.87,47.062 66.29,47.062 64.371,48.897 60.051,53.028 61.783,54.685 
		68.369,54.685 70.771,56.981 72.528,56.981 74.607,58.969 78.768,54.992 82.283,54.992 82.66,54.633 	"/>
	<polygon fill="#683C11" points="72.528,46.14 72.87,47.062 75.166,53.253 82.66,54.633 85.007,52.389 93.325,52.389 93.588,52.641 
		97.484,50.732 94.848,43.619 82.37,41.323 81.955,41.526 79.193,42.877 	"/>
	<polygon fill="#683C11" points="85.007,60.343 80.848,56.365 82.283,54.992 78.768,54.992 74.607,58.969 74.609,58.97 
		82.927,62.946 81.541,66.923 91.245,66.923 97.484,60.957 95.084,58.661 93.325,60.343 	"/>
	<polygon fill="#683C11" points="70.771,56.981 72.528,58.661 71.606,59.543 74.607,58.97 74.609,58.97 74.607,58.969 
		72.528,56.981 	"/>
	<polygon fill="#683C11" points="72.528,58.661 70.771,56.981 68.369,54.685 61.783,54.685 60.051,54.685 59.729,54.992 
		62.131,54.992 67.677,60.294 71.606,59.543 	"/>
	<polygon fill="#7D4E24" points="93.588,52.641 93.325,52.389 85.007,52.389 82.66,54.633 82.283,54.992 80.848,56.365 
		85.007,60.343 93.325,60.343 95.084,58.661 97.484,56.365 	"/>
	<polygon fill="#936037" points="62.131,54.992 59.729,54.992 53.769,54.992 54.074,55.349 53.874,56.218 55.892,57.205 
		55.01,59.585 62.131,59.585 64.049,61.419 64.21,60.957 67.677,60.294 	"/>
	<polygon fill="#432918" points="74.609,58.97 74.607,58.97 71.606,59.543 67.677,60.294 64.21,60.957 64.049,61.419 68.369,65.549 
		65.332,68.453 70.45,70.899 80.848,68.91 81.541,66.923 82.927,62.946 	"/>
	<polygon fill="#7D4E24" points="64.049,61.419 62.131,59.585 55.01,59.585 53.427,63.856 55.892,65.063 53.5,71.516 62.131,71.516 
		65.332,68.453 68.369,65.549 	"/>
	<polygon fill="#7D4E24" points="55.892,57.205 53.874,56.218 52.245,63.278 53.427,63.856 55.01,59.585 	"/>
	<polygon fill="#683C11" points="30.936,69.655 35.298,71.791 31.695,67.606 	"/>
	<polygon fill="#683C11" points="55.892,65.063 53.427,63.856 52.245,63.278 50.594,70.432 39.545,73.87 40.777,74.473 
		53.255,72.176 53.5,71.516 	"/>
	<path fill="#FFE0AE" d="M50.594,70.432l1.651-7.153l1.629-7.061l0.2-0.869l-0.306-0.356l-5.2-6.039l-3.355-3.896l-0.646-0.751
		L31.58,48.347l-0.133,0.577l-0.283,1.225l-0.459,1.989l-0.316,1.371l-0.317,1.377l-1.933,8.376L28.1,63.431l2.716,3.155
		l0.879,1.021l3.603,4.185l2.309,2.682l1.938-0.603L50.594,70.432z M41.086,63.431c-2.625,0-4.753-2.472-4.753-5.521
		c0-3.05,2.128-5.521,4.753-5.521c2.626,0,4.753,2.472,4.753,5.521C45.84,60.959,43.712,63.431,41.086,63.431z"/>
	<ellipse fill="#7D4E24" cx="41.086" cy="57.91" rx="4.753" ry="5.521"/>
</g>
</svg>
